<?xml version="1.0" standalone="no"?>
<!DOCTYPE svg PUBLIC "-//W3C//DTD SVG 20010904//EN"
 "http://www.w3.org/TR/2001/REC-SVG-20010904/DTD/svg10.dtd">
<svg version="1.0" xmlns="http://www.w3.org/2000/svg"
 width="586.000000pt" height="586.000000pt" viewBox="0 0 586.000000 586.000000"
 preserveAspectRatio="xMidYMid meet">
<metadata>
Created by potrace 1.14, written by Peter Selinger 2001-2017
</metadata>
<g transform="translate(0.000000,586.000000) scale(0.100000,-0.100000)"
fill="#000000" stroke="none">
<path d="M2739 5856 c-2 -2 -44 -7 -94 -10 -49 -4 -97 -9 -105 -11 -8 -3 -33
-7 -55 -10 -62 -7 -189 -33 -277 -55 -419 -108 -813 -308 -1152 -588 -88 -73
-302 -283 -359 -353 -247 -303 -415 -598 -535 -941 -27 -76 -76 -243 -87 -296
-60 -290 -70 -386 -70 -657 0 -178 9 -343 20 -385 2 -8 6 -37 10 -65 10 -83
45 -243 81 -369 99 -340 260 -663 470 -941 111 -146 140 -181 264 -305 156
-158 278 -258 457 -378 149 -100 241 -149 508 -273 87 -40 417 -141 505 -155
19 -3 54 -10 77 -15 142 -31 298 -44 528 -44 225 0 320 7 509 40 897 155 1672
723 2094 1535 144 276 267 649 297 899 4 30 8 61 10 70 13 71 19 188 19 376 1
233 -5 305 -39 515 -77 480 -325 1003 -662 1399 -68 79 -258 268 -323 321 -30
25 -57 47 -60 50 -3 4 -41 33 -85 66 -258 193 -584 359 -890 453 -176 54 -334
86 -565 117 -50 6 -485 15 -491 10z"/>
</g>
</svg>
